<svg width="679" height="476" viewBox="0 0 679 476" fill="none" xmlns="http://www.w3.org/2000/svg">
<g clip-path="url(#clip0_393_115)">
<rect width="679" height="476" fill="#252627"/>
<path d="M42.3916 150.748L42.3036 138.919L43.0263 138.915C43.3006 139.355 44.9261 139.273 45.1051 139.052C45.2484 138.875 45.1604 138.39 45.0986 138.17L41.9368 138.186C41.5754 138.188 40.7577 137.555 40.394 137.238L40.3459 130.772L41.1589 130.768C41.4427 130.59 41.5632 130.438 41.6955 130.031L41.6774 127.606C42.0375 127.428 42.2443 126.893 42.3027 126.648L42.0237 113.423L38.4102 113.441C38.3821 113.711 38.3087 114.367 38.2399 114.838C38.1711 115.309 37.4342 115.822 37.0743 116.019L22.7108 116.09C22.408 115.871 21.8017 115.33 21.7987 114.919C21.7956 114.507 21.1273 113.722 20.7935 113.381L17.0897 113.399L17.1831 125.963C17.187 126.492 17.5516 126.917 17.7333 127.063L17.7574 130.296L18.5704 130.292L19.2055 130.656L19.2579 137.71L17.9078 138.378L15.1977 138.391C15.0632 139.744 16.2892 139.39 16.919 139.044L17.9127 139.039L17.9979 150.501C18.6445 152.408 20.7328 153.821 23.8955 153.926C27.751 154.054 36.0032 154.219 38.1687 153.855C40.3341 153.492 41.8862 151.633 42.3916 150.748Z" fill="#7B7B7B" stroke="black" stroke-width="0.180677"/>
<path d="M36.8112 153.568L36.8074 153.054C40.503 151.933 40.4061 151.052 41.2153 150.534C41.7935 150.531 41.7599 150.874 41.6708 151.046C40.313 153.11 37.8654 153.587 36.8112 153.568Z" fill="#D1D1D1" stroke="black" stroke-width="0.180677"/>
<path d="M23.8029 153.632L23.7991 153.118C20.0871 152.034 20.1709 151.152 19.354 150.641C18.7758 150.644 18.8145 150.987 18.9061 151.158C20.2946 153.209 22.7491 153.662 23.8029 153.632Z" fill="#D1D1D1" stroke="black" stroke-width="0.180677"/>
<path d="M21.8981 140.416L38.3394 140.335C39.0603 140.096 39.5351 139.153 39.6824 138.712C39.8966 138.358 39.7669 137.927 39.6753 137.756C39.4581 137.699 39.1643 137.881 39.0446 137.98C38.5404 138.217 37.453 138.576 36.9723 138.725C32.365 138.723 23.1322 138.719 23.0599 138.72C22.699 138.78 21.6419 138.359 21.1585 138.141L19.9836 138.074C20.203 138.425 20.559 138.512 20.7095 138.511C20.6477 139.922 21.4762 140.369 21.8981 140.416Z" fill="#D1D1D1" stroke="black" stroke-width="0.180677"/>
<path d="M42.3916 331.414L42.3036 343.244L43.0263 343.247C43.3006 342.808 44.9261 342.889 45.1051 343.111C45.2484 343.288 45.1604 343.772 45.0986 343.992L41.9368 343.977C41.5754 343.975 40.7577 344.608 40.394 344.924L40.3459 351.39L41.1589 351.394C41.4427 351.573 41.5632 351.725 41.6955 352.132L41.6774 354.556C42.0375 354.734 42.2443 355.269 42.3027 355.515L42.0237 368.739L38.4102 368.722C38.3821 368.452 38.3087 367.795 38.2399 367.325C38.1711 366.854 37.4342 366.341 37.0743 366.143L22.7108 366.073C22.408 366.292 21.8017 366.832 21.7987 367.244C21.7956 367.655 21.1273 368.441 20.7935 368.782L17.0897 368.764L17.1831 356.199C17.187 355.67 17.5516 355.246 17.7333 355.1L17.7574 351.867L18.5704 351.871L19.2055 351.507L19.2579 344.453L17.9078 343.785L15.1977 343.772C15.0632 342.419 16.2892 342.773 16.919 343.119L17.9127 343.124L17.9979 331.662C18.6445 329.754 20.7328 328.342 23.8955 328.237C27.751 328.109 36.0032 327.944 38.1687 328.307C40.3341 328.671 41.8862 330.53 42.3916 331.414Z" fill="#7B7B7B" stroke="black" stroke-width="0.180677"/>
<path d="M36.8112 328.595L36.8074 329.109C40.503 330.229 40.4061 331.111 41.2153 331.629C41.7935 331.632 41.7599 331.289 41.6708 331.117C40.313 329.053 37.8654 328.575 36.8112 328.595Z" fill="#D1D1D1" stroke="black" stroke-width="0.180677"/>
<path d="M23.8029 328.53L23.7991 329.045C20.0871 330.129 20.1709 331.011 19.354 331.521C18.7758 331.518 18.8145 331.176 18.9061 331.005C20.2946 328.954 22.7491 328.501 23.8029 328.53Z" fill="#D1D1D1" stroke="black" stroke-width="0.180677"/>
<path d="M21.8981 341.747L38.3394 341.828C39.0603 342.067 39.5351 343.009 39.6824 343.451C39.8966 343.805 39.7669 344.235 39.6753 344.406C39.4581 344.464 39.1643 344.281 39.0446 344.183C38.5404 343.945 37.453 343.587 36.9723 343.438C32.365 343.44 23.1322 343.443 23.0599 343.443C22.699 343.382 21.6419 343.803 21.1585 344.021L19.9836 344.089C20.203 343.737 20.559 343.651 20.7095 343.652C20.6477 342.241 21.4762 341.794 21.8981 341.747Z" fill="#D1D1D1" stroke="black" stroke-width="0.180677"/>
<path d="M103.392 150.748L103.304 138.919L104.026 138.915C104.301 139.355 105.926 139.273 106.105 139.052C106.248 138.875 106.16 138.39 106.099 138.17L102.937 138.186C102.575 138.188 101.758 137.555 101.394 137.238L101.346 130.772L102.159 130.768C102.443 130.59 102.563 130.438 102.695 130.031L102.677 127.606C103.037 127.428 103.244 126.893 103.303 126.648L103.024 113.423L99.4102 113.441C99.3821 113.711 99.3087 114.367 99.2399 114.838C99.1711 115.309 98.4342 115.822 98.0743 116.019L83.7108 116.09C83.408 115.871 82.8017 115.33 82.7987 114.919C82.7956 114.507 82.1273 113.722 81.7935 113.381L78.0897 113.399L78.1831 125.963C78.187 126.492 78.5516 126.917 78.7333 127.063L78.7574 130.296L79.5704 130.292L80.2055 130.656L80.2579 137.71L78.9078 138.378L76.1977 138.391C76.0632 139.744 77.2892 139.39 77.919 139.044L78.9127 139.039L78.9979 150.501C79.6445 152.408 81.7328 153.821 84.8955 153.926C88.751 154.054 97.0032 154.219 99.1687 153.855C101.334 153.492 102.886 151.633 103.392 150.748Z" fill="#7B7B7B" stroke="black" stroke-width="0.180677"/>
<path d="M97.8112 153.568L97.8074 153.054C101.503 151.933 101.406 151.052 102.215 150.534C102.793 150.531 102.76 150.874 102.671 151.046C101.313 153.11 98.8654 153.587 97.8112 153.568Z" fill="#D1D1D1" stroke="black" stroke-width="0.180677"/>
<path d="M84.8029 153.632L84.7991 153.118C81.0871 152.034 81.1709 151.152 80.354 150.641C79.7758 150.644 79.8145 150.987 79.9061 151.158C81.2946 153.209 83.7491 153.662 84.8029 153.632Z" fill="#D1D1D1" stroke="black" stroke-width="0.180677"/>
<path d="M82.8981 140.416L99.3394 140.335C100.06 140.096 100.535 139.153 100.682 138.712C100.897 138.358 100.767 137.927 100.675 137.756C100.458 137.699 100.164 137.881 100.045 137.98C99.5404 138.217 98.453 138.576 97.9723 138.725C93.365 138.723 84.1322 138.719 84.0599 138.72C83.699 138.78 82.6419 138.359 82.1585 138.141L80.9836 138.074C81.203 138.425 81.559 138.512 81.7095 138.511C81.6477 139.922 82.4762 140.369 82.8981 140.416Z" fill="#D1D1D1" stroke="black" stroke-width="0.180677"/>
<path d="M103.392 312.252L103.304 324.081L104.026 324.085C104.301 323.645 105.926 323.727 106.105 323.948C106.248 324.125 106.16 324.61 106.099 324.83L102.937 324.814C102.575 324.812 101.758 325.445 101.394 325.762L101.346 332.228L102.159 332.232C102.443 332.41 102.563 332.562 102.695 332.969L102.677 335.394C103.037 335.572 103.244 336.107 103.303 336.352L103.024 349.577L99.4102 349.559C99.3821 349.289 99.3087 348.633 99.2399 348.162C99.1711 347.691 98.4342 347.178 98.0743 346.981L83.7108 346.91C83.408 347.129 82.8017 347.67 82.7987 348.081C82.7956 348.493 82.1273 349.278 81.7935 349.619L78.0897 349.601L78.1831 337.037C78.187 336.508 78.5516 336.083 78.7333 335.937L78.7574 332.704L79.5704 332.708L80.2055 332.344L80.2579 325.29L78.9078 324.622L76.1977 324.609C76.0632 323.256 77.2892 323.61 77.919 323.956L78.9127 323.961L78.9979 312.499C79.6445 310.592 81.7328 309.179 84.8955 309.074C88.751 308.946 97.0032 308.781 99.1687 309.145C101.334 309.508 102.886 311.367 103.392 312.252Z" fill="#7B7B7B" stroke="black" stroke-width="0.180677"/>
<path d="M97.8112 309.432L97.8074 309.946C101.503 311.067 101.406 311.948 102.215 312.466C102.793 312.469 102.76 312.126 102.671 311.954C101.313 309.89 98.8654 309.413 97.8112 309.432Z" fill="#D1D1D1" stroke="black" stroke-width="0.180677"/>
<path d="M84.8029 309.368L84.7991 309.882C81.0871 310.966 81.1709 311.848 80.354 312.359C79.7758 312.356 79.8145 312.013 79.9061 311.842C81.2946 309.791 83.7491 309.338 84.8029 309.368Z" fill="#D1D1D1" stroke="black" stroke-width="0.180677"/>
<path d="M82.8981 322.584L99.3394 322.665C100.06 322.904 100.535 323.847 100.682 324.288C100.897 324.642 100.767 325.073 100.675 325.244C100.458 325.301 100.164 325.119 100.045 325.02C99.5404 324.783 98.453 324.424 97.9723 324.275C93.365 324.277 84.1322 324.281 84.0599 324.28C83.699 324.22 82.6419 324.641 82.1585 324.859L80.9836 324.926C81.203 324.575 81.559 324.488 81.7095 324.489C81.6477 323.078 82.4762 322.631 82.8981 322.584Z" fill="#D1D1D1" stroke="black" stroke-width="0.180677"/>
<path d="M225.392 134.748L225.304 122.919L226.026 122.915C226.301 123.355 227.926 123.273 228.105 123.052C228.248 122.875 228.16 122.39 228.099 122.17L224.937 122.186C224.575 122.188 223.758 121.555 223.394 121.238L223.346 114.772L224.159 114.768C224.443 114.59 224.563 114.438 224.695 114.031L224.677 111.606C225.037 111.428 225.244 110.893 225.303 110.648L225.024 97.4233L221.41 97.4411C221.382 97.7106 221.309 98.3674 221.24 98.838C221.171 99.3086 220.434 99.8217 220.074 100.019L205.711 100.09C205.408 99.8711 204.802 99.3303 204.799 98.9189C204.796 98.5074 204.127 97.722 203.793 97.3808L200.09 97.399L200.183 109.963C200.187 110.492 200.552 110.917 200.733 111.063L200.757 114.296L201.57 114.292L202.205 114.656L202.258 121.71L200.908 122.378L198.198 122.391C198.063 123.744 199.289 123.39 199.919 123.044L200.913 123.039L200.998 134.501C201.645 136.408 203.733 137.821 206.896 137.926C210.751 138.054 219.003 138.219 221.169 137.855C223.334 137.492 224.886 135.633 225.392 134.748Z" fill="#7B7B7B" stroke="black" stroke-width="0.180677"/>
<path d="M219.811 137.568L219.807 137.054C223.503 135.933 223.406 135.052 224.215 134.534C224.793 134.531 224.76 134.874 224.671 135.046C223.313 137.11 220.865 137.587 219.811 137.568Z" fill="#D1D1D1" stroke="black" stroke-width="0.180677"/>
<path d="M206.803 137.632L206.799 137.118C203.087 136.034 203.171 135.152 202.354 134.641C201.776 134.644 201.815 134.987 201.906 135.158C203.295 137.209 205.749 137.662 206.803 137.632Z" fill="#D1D1D1" stroke="black" stroke-width="0.180677"/>
<path d="M204.898 124.416L221.339 124.335C222.06 124.096 222.535 123.153 222.682 122.712C222.897 122.358 222.767 121.927 222.675 121.756C222.458 121.699 222.164 121.881 222.045 121.98C221.54 122.217 220.453 122.576 219.972 122.725C215.365 122.723 206.132 122.719 206.06 122.72C205.699 122.78 204.642 122.359 204.158 122.141L202.984 122.074C203.203 122.425 203.559 122.512 203.71 122.511C203.648 123.922 204.476 124.369 204.898 124.416Z" fill="#D1D1D1" stroke="black" stroke-width="0.180677"/>
<path d="M286.392 150.748L286.304 138.919L287.026 138.915C287.301 139.355 288.926 139.273 289.105 139.052C289.248 138.875 289.16 138.39 289.099 138.17L285.937 138.186C285.575 138.188 284.758 137.555 284.394 137.238L284.346 130.772L285.159 130.768C285.443 130.59 285.563 130.438 285.695 130.031L285.677 127.606C286.037 127.428 286.244 126.893 286.303 126.648L286.024 113.423L282.41 113.441C282.382 113.711 282.309 114.367 282.24 114.838C282.171 115.309 281.434 115.822 281.074 116.019L266.711 116.09C266.408 115.871 265.802 115.33 265.799 114.919C265.796 114.507 265.127 113.722 264.793 113.381L261.09 113.399L261.183 125.963C261.187 126.492 261.552 126.917 261.733 127.063L261.757 130.296L262.57 130.292L263.205 130.656L263.258 137.71L261.908 138.378L259.198 138.391C259.063 139.744 260.289 139.39 260.919 139.044L261.913 139.039L261.998 150.501C262.645 152.408 264.733 153.821 267.896 153.926C271.751 154.054 280.003 154.219 282.169 153.855C284.334 153.492 285.886 151.633 286.392 150.748Z" fill="#7B7B7B" stroke="black" stroke-width="0.180677"/>
<path d="M280.811 153.568L280.807 153.054C284.503 151.933 284.406 151.052 285.215 150.534C285.793 150.531 285.76 150.874 285.671 151.046C284.313 153.11 281.865 153.587 280.811 153.568Z" fill="#D1D1D1" stroke="black" stroke-width="0.180677"/>
<path d="M267.803 153.632L267.799 153.118C264.087 152.034 264.171 151.152 263.354 150.641C262.776 150.644 262.815 150.987 262.906 151.158C264.295 153.209 266.749 153.662 267.803 153.632Z" fill="#D1D1D1" stroke="black" stroke-width="0.180677"/>
<path d="M265.898 140.416L282.339 140.335C283.06 140.096 283.535 139.153 283.682 138.712C283.897 138.358 283.767 137.927 283.675 137.756C283.458 137.699 283.164 137.881 283.045 137.98C282.54 138.217 281.453 138.576 280.972 138.725C276.365 138.723 267.132 138.719 267.06 138.72C266.699 138.78 265.642 138.359 265.158 138.141L263.984 138.074C264.203 138.425 264.559 138.512 264.71 138.511C264.648 139.922 265.476 140.369 265.898 140.416Z" fill="#D1D1D1" stroke="black" stroke-width="0.180677"/>
<path d="M528.308 189.68L516.481 189.427L516.498 188.705C516.946 188.443 516.911 186.816 516.695 186.631C516.522 186.482 516.035 186.556 515.813 186.612L515.738 189.773C515.729 190.134 515.073 190.933 514.746 191.288L508.282 191.15L508.301 190.337C508.131 190.048 507.982 189.923 507.579 189.779L505.155 189.727C504.988 189.362 504.459 189.14 504.215 189.075L490.988 188.973L490.902 192.585C491.17 192.621 491.825 192.714 492.293 192.796C492.762 192.878 493.253 193.63 493.441 193.995L493.098 208.355C492.87 208.651 492.312 209.241 491.901 209.233C491.489 209.224 490.685 209.869 490.334 210.193L490.246 213.896L502.808 214.164C503.337 214.176 503.771 213.823 503.923 213.646L507.155 213.715L507.174 212.902L507.557 212.278L514.609 212.428L515.238 213.797L515.173 216.507C516.521 216.68 516.203 215.444 515.875 214.805L515.899 213.811L527.359 214.056C529.284 213.465 530.756 211.418 530.952 208.26C531.191 204.41 531.593 196.165 531.292 193.99C530.992 191.815 529.178 190.21 528.308 189.68Z" fill="#7B7B7B" stroke="black" stroke-width="0.180677"/>
<path d="M530.966 195.339L530.452 195.328C529.439 191.601 528.555 191.673 528.06 190.849C528.074 190.271 528.416 190.314 528.585 190.408C530.609 191.825 531.016 194.285 530.966 195.339Z" fill="#D1D1D1" stroke="black" stroke-width="0.180677"/>
<path d="M530.656 208.344L530.142 208.333C528.951 212.012 528.072 211.903 527.538 212.704C527.525 213.282 527.868 213.254 528.042 213.167C530.132 211.838 530.655 209.398 530.656 208.344Z" fill="#D1D1D1" stroke="black" stroke-width="0.180677"/>
<path d="M517.389 209.867L517.782 193.431C517.564 192.703 516.635 192.201 516.198 192.041C515.851 191.817 515.417 191.934 515.243 192.021C515.179 192.236 515.353 192.535 515.448 192.658C515.671 193.169 515.998 194.266 516.133 194.751C515.999 199.356 515.729 208.585 515.728 208.657C515.778 209.02 515.327 210.064 515.095 210.541L514.993 211.714C515.351 211.504 515.448 211.151 515.451 211.001C516.86 211.103 517.33 210.288 517.389 209.867Z" fill="#D1D1D1" stroke="black" stroke-width="0.180677"/>
<path d="M469.392 150.748L469.304 138.919L470.026 138.915C470.301 139.355 471.926 139.273 472.105 139.052C472.248 138.875 472.16 138.39 472.099 138.17L468.937 138.186C468.575 138.188 467.758 137.555 467.394 137.238L467.346 130.772L468.159 130.768C468.443 130.59 468.563 130.438 468.695 130.031L468.677 127.606C469.037 127.428 469.244 126.893 469.303 126.648L469.024 113.423L465.41 113.441C465.382 113.711 465.309 114.367 465.24 114.838C465.171 115.309 464.434 115.822 464.074 116.019L449.711 116.09C449.408 115.871 448.802 115.33 448.799 114.919C448.796 114.507 448.127 113.722 447.793 113.381L444.09 113.399L444.183 125.963C444.187 126.492 444.552 126.917 444.733 127.063L444.757 130.296L445.57 130.292L446.205 130.656L446.258 137.71L444.908 138.378L442.198 138.391C442.063 139.744 443.289 139.39 443.919 139.044L444.913 139.039L444.998 150.501C445.645 152.408 447.733 153.821 450.896 153.926C454.751 154.054 463.003 154.219 465.169 153.855C467.334 153.492 468.886 151.633 469.392 150.748Z" fill="#7B7B7B" stroke="black" stroke-width="0.180677"/>
<path d="M463.811 153.568L463.807 153.054C467.503 151.933 467.406 151.052 468.215 150.534C468.793 150.531 468.76 150.874 468.671 151.046C467.313 153.11 464.865 153.587 463.811 153.568Z" fill="#D1D1D1" stroke="black" stroke-width="0.180677"/>
<path d="M450.803 153.632L450.799 153.118C447.087 152.034 447.171 151.152 446.354 150.641C445.776 150.644 445.815 150.987 445.906 151.158C447.295 153.209 449.749 153.662 450.803 153.632Z" fill="#D1D1D1" stroke="black" stroke-width="0.180677"/>
<path d="M448.898 140.416L465.339 140.335C466.06 140.096 466.535 139.153 466.682 138.712C466.897 138.358 466.767 137.927 466.675 137.756C466.458 137.699 466.164 137.881 466.045 137.98C465.54 138.217 464.453 138.576 463.972 138.725C459.365 138.723 450.132 138.719 450.06 138.72C449.699 138.78 448.642 138.359 448.158 138.141L446.984 138.074C447.203 138.425 447.559 138.512 447.71 138.511C447.648 139.922 448.476 140.369 448.898 140.416Z" fill="#D1D1D1" stroke="black" stroke-width="0.180677"/>
<path d="M652.392 161.748L652.304 149.919L653.026 149.915C653.301 150.355 654.926 150.273 655.105 150.052C655.248 149.875 655.16 149.39 655.099 149.17L651.937 149.186C651.575 149.188 650.758 148.555 650.394 148.238L650.346 141.772L651.159 141.768C651.443 141.59 651.563 141.438 651.695 141.031L651.677 138.606C652.037 138.428 652.244 137.893 652.303 137.648L652.024 124.423L648.41 124.441C648.382 124.711 648.309 125.367 648.24 125.838C648.171 126.309 647.434 126.822 647.074 127.019L632.711 127.09C632.408 126.871 631.802 126.33 631.799 125.919C631.796 125.507 631.127 124.722 630.793 124.381L627.09 124.399L627.183 136.963C627.187 137.492 627.552 137.917 627.733 138.063L627.757 141.296L628.57 141.292L629.205 141.656L629.258 148.71L627.908 149.378L625.198 149.391C625.063 150.744 626.289 150.39 626.919 150.044L627.913 150.039L627.998 161.501C628.645 163.408 630.733 164.821 633.896 164.926C637.751 165.054 646.003 165.219 648.169 164.855C650.334 164.492 651.886 162.633 652.392 161.748Z" fill="#7B7B7B" stroke="black" stroke-width="0.180677"/>
<path d="M646.811 164.568L646.807 164.054C650.503 162.933 650.406 162.052 651.215 161.534C651.793 161.531 651.76 161.874 651.671 162.046C650.313 164.11 647.865 164.587 646.811 164.568Z" fill="#D1D1D1" stroke="black" stroke-width="0.180677"/>
<path d="M633.803 164.632L633.799 164.118C630.087 163.034 630.171 162.152 629.354 161.641C628.776 161.644 628.815 161.987 628.906 162.158C630.295 164.209 632.749 164.662 633.803 164.632Z" fill="#D1D1D1" stroke="black" stroke-width="0.180677"/>
<path d="M631.898 151.416L648.339 151.335C649.06 151.096 649.535 150.153 649.682 149.712C649.897 149.358 649.767 148.927 649.675 148.756C649.458 148.699 649.164 148.881 649.045 148.98C648.54 149.217 647.453 149.576 646.972 149.725C642.365 149.723 633.132 149.719 633.06 149.72C632.699 149.78 631.642 149.359 631.158 149.141L629.984 149.074C630.203 149.425 630.559 149.512 630.71 149.511C630.648 150.922 631.476 151.369 631.898 151.416Z" fill="#D1D1D1" stroke="black" stroke-width="0.180677"/>
<path d="M541.288 283.113H553.117L553.116 283.836C552.674 284.107 552.743 285.733 552.963 285.913C553.139 286.058 553.625 285.974 553.845 285.913L553.853 282.752C553.854 282.39 554.493 281.577 554.812 281.216H561.278L561.276 282.029C561.453 282.314 561.604 282.436 562.01 282.571H564.434C564.61 282.932 565.143 283.143 565.388 283.203L578.614 283.023L578.624 279.409C578.354 279.379 577.698 279.301 577.228 279.228C576.758 279.156 576.25 278.415 576.055 278.054L576.091 263.69C576.313 263.389 576.858 262.787 577.269 262.787C577.681 262.787 578.471 262.125 578.815 261.793L578.824 258.089H566.259C565.73 258.089 565.303 258.451 565.156 258.631H561.923L561.921 259.444L561.552 260.077H554.498L553.84 258.722L553.847 256.012C552.495 255.867 552.84 257.096 553.181 257.728L553.179 258.722H541.716C539.804 259.354 538.377 261.432 538.248 264.594C538.091 268.448 537.865 276.699 538.212 278.867C538.559 281.035 540.407 282.601 541.288 283.113Z" fill="#7B7B7B" stroke="black" stroke-width="0.180677"/>
<path d="M538.51 277.512L539.024 277.512C540.117 281.216 540.999 281.126 541.511 281.939C541.51 282.517 541.167 282.481 540.996 282.39C538.942 281.017 538.482 278.566 538.51 277.512Z" fill="#D1D1D1" stroke="black" stroke-width="0.180677"/>
<path d="M538.542 264.504L539.057 264.504C540.168 260.8 541.05 260.89 541.566 260.077C541.568 259.499 541.225 259.535 541.053 259.625C538.992 260.998 538.521 263.45 538.542 264.504Z" fill="#D1D1D1" stroke="black" stroke-width="0.180677"/>
<path d="M551.772 262.697L551.731 279.138C551.964 279.861 552.904 280.343 553.344 280.493C553.696 280.71 554.128 280.584 554.299 280.493C554.359 280.276 554.178 279.981 554.081 279.861C553.847 279.355 553.497 278.265 553.351 277.783C553.387 273.176 553.459 263.943 553.459 263.871C553.402 263.51 553.83 262.456 554.052 261.974L554.128 260.8C553.775 261.016 553.686 261.372 553.686 261.522C552.275 261.45 551.822 262.275 551.772 262.697Z" fill="#D1D1D1" stroke="black" stroke-width="0.180677"/>
<path d="M16.5524 6.12354L41.666 6L42.1763 111.071L41.5439 111.075L41.5554 112.618L37.5806 112.637C37.591 114.033 37.6014 115.429 36.2436 115.068L36.213 110.954L23.6562 111.016C23.6312 111.702 23.6011 113.323 23.6808 114.322C23.7605 115.321 23.0548 115.182 22.692 114.988C22.8313 114.282 22.1365 113.178 21.7717 112.715L17.8872 112.734L17.8747 111.044L17.3326 111.047L16.5524 6.12354Z" fill="#7B7B7B" stroke="black" stroke-width="0.180677"/>
<path d="M16.5524 476.039L41.666 476.163L42.1763 371.091L41.5439 371.088L41.5554 369.545L37.5806 369.526C37.591 368.129 37.6014 366.733 36.2436 367.094L36.213 371.209L23.6562 371.147C23.6312 370.461 23.6011 368.84 23.6808 367.841C23.7605 366.842 23.0548 366.98 22.692 367.174C22.8313 367.881 22.1365 368.984 21.7717 369.448L17.8872 369.429L17.8747 371.119L17.3326 371.116L16.5524 476.039Z" fill="#7B7B7B" stroke="black" stroke-width="0.180677"/>
<path d="M77.5524 6.12354L102.666 6L103.176 111.071L102.544 111.075L102.555 112.618L98.5806 112.637C98.591 114.033 98.6014 115.429 97.2436 115.068L97.213 110.954L84.6562 111.016C84.6312 111.702 84.6011 113.323 84.6808 114.322C84.7605 115.321 84.0548 115.182 83.692 114.988C83.8313 114.282 83.1365 113.178 82.7717 112.715L78.8872 112.734L78.8747 111.044L78.3326 111.047L77.5524 6.12354Z" fill="#7B7B7B" stroke="black" stroke-width="0.180677"/>
<path d="M77.5524 456.876L102.666 457L103.176 351.929L102.544 351.925L102.555 350.382L98.5806 350.363C98.591 348.967 98.6014 347.571 97.2436 347.932L97.213 352.046L84.6562 351.984C84.6312 351.298 84.6011 349.677 84.6808 348.678C84.7605 347.679 84.0548 347.818 83.692 348.012C83.8313 348.718 83.1365 349.822 82.7717 350.285L78.8872 350.266L78.8747 351.956L78.3326 351.953L77.5524 456.876Z" fill="#7B7B7B" stroke="black" stroke-width="0.180677"/>
<path d="M199.552 -9.87646L224.666 -10L225.176 95.0714L224.544 95.0746L224.555 96.6175L220.581 96.6371C220.591 98.0331 220.601 99.4292 219.244 99.0685L219.213 94.9538L206.656 95.0156C206.631 95.7015 206.601 97.3231 206.681 98.322C206.76 99.3209 206.055 99.1823 205.692 98.9882C205.831 98.2821 205.137 97.1784 204.772 96.7149L200.887 96.734L200.875 95.044L200.333 95.0467L199.552 -9.87646Z" fill="#7B7B7B" stroke="black" stroke-width="0.180677"/>
<path d="M260.552 6.12354L285.666 6L286.176 111.071L285.544 111.075L285.555 112.618L281.581 112.637C281.591 114.033 281.601 115.429 280.244 115.068L280.213 110.954L267.656 111.016C267.631 111.702 267.601 113.323 267.681 114.322C267.76 115.321 267.055 115.182 266.692 114.988C266.831 114.282 266.137 113.178 265.772 112.715L261.887 112.734L261.875 111.044L261.333 111.047L260.552 6.12354Z" fill="#7B7B7B" stroke="black" stroke-width="0.180677"/>
<path d="M322 25.1235L347.113 25L347.624 130.071L346.991 130.075L347.003 131.618L343.028 131.637C343.038 133.033 343.049 134.429 341.691 134.068L341.66 129.954L329.103 130.016C329.078 130.702 329.048 132.323 329.128 133.322C329.208 134.321 328.502 134.182 328.139 133.988C328.279 133.282 327.584 132.178 327.219 131.715L323.334 131.734L323.322 130.044L322.78 130.047L322 25.1235Z" fill="#7B7B7B" stroke="black" stroke-width="0.180677"/>
<path d="M321.552 456.876L346.666 457L347.176 351.929L346.544 351.925L346.555 350.382L342.581 350.363C342.591 348.967 342.601 347.571 341.244 347.932L341.213 352.046L328.656 351.984C328.631 351.298 328.601 349.677 328.681 348.678C328.76 347.679 328.055 347.818 327.692 348.012C327.831 348.718 327.137 349.822 326.772 350.285L322.887 350.266L322.875 351.956L322.333 351.953L321.552 456.876Z" fill="#7B7B7B" stroke="black" stroke-width="0.180677"/>
<path d="M383 211.344L383.6 186.237L488.642 188.752L488.627 189.385L490.17 189.418L490.075 193.391C491.471 193.421 492.866 193.451 492.467 194.798L488.353 194.71L488.053 207.263C488.738 207.308 490.358 207.385 491.359 207.334C492.36 207.283 492.201 207.984 491.996 208.341C491.295 208.182 490.171 208.845 489.697 209.196L489.605 213.079L487.915 213.043L487.902 213.585L383 211.344Z" fill="#7B7B7B" stroke="black" stroke-width="0.180677"/>
<path d="M383 441.097L408.113 441.221L408.624 336.15L407.991 336.146L408.003 334.603L404.028 334.584C404.038 333.188 404.049 331.792 402.691 332.152L402.66 336.267L390.103 336.205C390.078 335.519 390.048 333.898 390.128 332.899C390.208 331.9 389.502 332.039 389.139 332.233C389.279 332.939 388.584 334.043 388.219 334.506L384.334 334.487L384.322 336.177L383.78 336.174L383 441.097Z" fill="#7B7B7B" stroke="black" stroke-width="0.180677"/>
<path d="M443.552 6.12354L468.666 6L469.176 111.071L468.544 111.075L468.555 112.618L464.581 112.637C464.591 114.033 464.601 115.429 463.244 115.068L463.213 110.954L450.656 111.016C450.631 111.702 450.601 113.323 450.681 114.322C450.76 115.321 450.055 115.182 449.692 114.988C449.831 114.282 449.137 113.178 448.772 112.715L444.887 112.734L444.875 111.044L444.333 111.047L443.552 6.12354Z" fill="#7B7B7B" stroke="black" stroke-width="0.180677"/>
<path d="M565.552 6.12354L590.666 6L591.176 111.071L590.544 111.075L590.555 112.618L586.581 112.637C586.591 114.033 586.601 115.429 585.244 115.068L585.213 110.954L572.656 111.016C572.631 111.702 572.601 113.323 572.681 114.322C572.76 115.321 572.055 115.182 571.692 114.988C571.831 114.282 571.137 113.178 570.772 112.715L566.887 112.734L566.875 111.044L566.333 111.047L565.552 6.12354Z" fill="#7B7B7B" stroke="black" stroke-width="0.180677"/>
<path d="M626.552 17.1235L651.666 17L652.176 122.071L651.544 122.075L651.555 123.618L647.581 123.637C647.591 125.033 647.601 126.429 646.244 126.068L646.213 121.954L633.656 122.016C633.631 122.702 633.601 124.323 633.681 125.322C633.76 126.321 633.055 126.182 632.692 125.988C632.831 125.282 632.137 124.178 631.772 123.715L627.887 123.734L627.875 122.044L627.333 122.047L626.552 17.1235Z" fill="#7B7B7B" stroke="black" stroke-width="0.180677"/>
<line x1="61.5" y1="-13" x2="61.5" y2="165" stroke="#3D3D3D" stroke-width="5"/>
<line y1="-2.5" x2="178" y2="-2.5" transform="matrix(-4.37114e-08 -1 -1 4.37114e-08 59 476)" stroke="#3D3D3D" stroke-width="5"/>
<line x1="122.5" y1="-13" x2="122.5" y2="165" stroke="#3D3D3D" stroke-width="5"/>
<line y1="-2.5" x2="178" y2="-2.5" transform="matrix(-4.37114e-08 -1 -1 4.37114e-08 120 476)" stroke="#3D3D3D" stroke-width="5"/>
<line x1="183.5" y1="-13" x2="183.5" y2="165" stroke="#3D3D3D" stroke-width="5"/>
<line y1="-2.5" x2="178" y2="-2.5" transform="matrix(-4.37114e-08 -1 -1 4.37114e-08 181 476)" stroke="#3D3D3D" stroke-width="5"/>
<line x1="244.5" y1="-13" x2="244.5" y2="165" stroke="#3D3D3D" stroke-width="5"/>
<line y1="-2.5" x2="178" y2="-2.5" transform="matrix(-4.37114e-08 -1 -1 4.37114e-08 242 476)" stroke="#3D3D3D" stroke-width="5"/>
<line x1="305.5" y1="-13" x2="305.5" y2="165" stroke="#3D3D3D" stroke-width="5"/>
<line y1="-2.5" x2="178" y2="-2.5" transform="matrix(-4.37114e-08 -1 -1 4.37114e-08 303 476)" stroke="#3D3D3D" stroke-width="5"/>
<line x1="366.5" y1="-13" x2="366.5" y2="165" stroke="#3D3D3D" stroke-width="5"/>
<line y1="-2.5" x2="178" y2="-2.5" transform="matrix(-4.37114e-08 -1 -1 4.37114e-08 364 476)" stroke="#3D3D3D" stroke-width="5"/>
<line x1="427.5" y1="-13" x2="427.5" y2="165" stroke="#3D3D3D" stroke-width="5"/>
<line y1="-2.5" x2="178" y2="-2.5" transform="matrix(-4.37114e-08 -1 -1 4.37114e-08 425 476)" stroke="#3D3D3D" stroke-width="5"/>
<line x1="488.5" y1="-13" x2="488.5" y2="165" stroke="#3D3D3D" stroke-width="5"/>
<line y1="-2.5" x2="178" y2="-2.5" transform="matrix(-4.37114e-08 -1 -1 4.37114e-08 486 476)" stroke="#3D3D3D" stroke-width="5"/>
<line x1="549.5" y1="-13" x2="549.5" y2="165" stroke="#3D3D3D" stroke-width="5"/>
<line y1="-2.5" x2="178" y2="-2.5" transform="matrix(-4.37114e-08 -1 -1 4.37114e-08 547 476)" stroke="#3D3D3D" stroke-width="5"/>
<line x1="610.5" y1="-13" x2="610.5" y2="165" stroke="#3D3D3D" stroke-width="5"/>
<line y1="-2.5" x2="178" y2="-2.5" transform="matrix(-4.37114e-08 -1 -1 4.37114e-08 608 476)" stroke="#3D3D3D" stroke-width="5"/>
<line x1="671.5" y1="-13" x2="671.5" y2="165" stroke="#3D3D3D" stroke-width="5"/>
<line y1="-2.5" x2="178" y2="-2.5" transform="matrix(-4.37114e-08 -1 -1 4.37114e-08 669 476)" stroke="#3D3D3D" stroke-width="5"/>
<rect x="453.009" y="402.395" width="0.958397" height="7.28382" transform="rotate(-90 453.009 402.395)" fill="#D9D9D9"/>
<rect x="444" y="456.832" width="54.4369" height="25.11" rx="2.04255" transform="rotate(-90 444 456.832)" fill="#7B7B7B"/>
<path d="M446.204 454.916V404.312" stroke="#D1D1D1" stroke-width="0.612766" stroke-linecap="round"/>
<path d="M448.792 454.916V404.312" stroke="#D1D1D1" stroke-width="0.612766" stroke-linecap="round"/>
<path d="M451.38 454.916V404.312" stroke="#D1D1D1" stroke-width="0.612766" stroke-linecap="round"/>
<path d="M453.968 454.916V404.312" stroke="#D1D1D1" stroke-width="0.612766" stroke-linecap="round"/>
<path d="M456.555 454.916V404.312" stroke="#D1D1D1" stroke-width="0.612766" stroke-linecap="round"/>
<path d="M459.143 454.916V404.312" stroke="#D1D1D1" stroke-width="0.612766" stroke-linecap="round"/>
<path d="M461.73 454.916V404.312" stroke="#D1D1D1" stroke-width="0.612766" stroke-linecap="round"/>
<path d="M464.318 454.916V404.312" stroke="#D1D1D1" stroke-width="0.612766" stroke-linecap="round"/>
<path d="M466.905 454.916V404.312" stroke="#D1D1D1" stroke-width="0.612766" stroke-linecap="round"/>
<rect x="444" y="401.437" width="54.4369" height="25.11" rx="2.04255" transform="rotate(-90 444 401.437)" fill="#7B7B7B"/>
<path d="M446.204 399.52V348.917" stroke="#D1D1D1" stroke-width="0.612766" stroke-linecap="round"/>
<path d="M448.792 399.52V348.917" stroke="#D1D1D1" stroke-width="0.612766" stroke-linecap="round"/>
<path d="M451.38 399.52V348.917" stroke="#D1D1D1" stroke-width="0.612766" stroke-linecap="round"/>
<path d="M453.968 399.52V348.917" stroke="#D1D1D1" stroke-width="0.612766" stroke-linecap="round"/>
<path d="M456.555 399.52V348.917" stroke="#D1D1D1" stroke-width="0.612766" stroke-linecap="round"/>
<path d="M459.143 399.52V348.917" stroke="#D1D1D1" stroke-width="0.612766" stroke-linecap="round"/>
<path d="M461.73 399.52V348.917" stroke="#D1D1D1" stroke-width="0.612766" stroke-linecap="round"/>
<path d="M464.318 399.52V348.917" stroke="#D1D1D1" stroke-width="0.612766" stroke-linecap="round"/>
<path d="M466.905 399.52V348.917" stroke="#D1D1D1" stroke-width="0.612766" stroke-linecap="round"/>
<path d="M142.79 403.04L141.061 411.912L140.189 416.912L139.009 424.919C139.003 424.961 139 425.004 139 425.047V438.93L139.555 450.158L141.051 459.916C141.057 459.96 141.061 460.005 141.061 460.049V466.123C141.061 466.607 141.454 467 141.938 467H162.933C163.417 467 163.81 466.607 163.81 466.123V459.982L164.682 450.158L165.316 438.93V424.982L164.682 416.912L163.651 411.912L161.749 402.965C159.325 395.61 157.124 392.242 152.606 387.684C152.241 387.316 151.636 387.35 151.313 387.755C147.29 392.812 145.363 396.303 142.832 402.893C142.814 402.94 142.8 402.99 142.79 403.04Z" fill="#7B7B7B"/>
<path d="M147.798 396.474L144.922 403.963C144.151 405.971 143.756 408.103 143.756 410.253V411.825C149.843 409.298 157.759 410.772 160.956 411.825V410.489C160.956 408.186 160.503 405.905 159.621 403.776L156.597 396.474C155.507 393.499 154.579 392.25 152.697 390.819C152.382 390.579 151.943 390.593 151.643 390.85C149.574 392.624 148.781 393.993 147.798 396.474Z" fill="#ADADAD"/>
<path d="M161.828 463.053H142.488C142.118 457.556 140.268 446.474 141.774 444.719C143.038 443.247 144.232 442.877 145.024 442.614H158.103C158.975 442.497 161.147 442.807 162.859 444.983C164.571 447.158 162.885 457.936 161.828 463.053Z" fill="#ADADAD"/>
<path d="M146.213 420.86L143.281 416.211C142.107 414.351 144.06 413.506 145.183 413.316C148.301 413.023 155.392 412.614 158.816 413.316C162.241 414.018 162.093 415.538 161.591 416.211L158.261 421.211L146.213 420.86Z" fill="#ADADAD"/>
<path d="M139.889 437.051L141.345 418.648C141.367 418.372 141.442 418.093 141.63 417.89C142.697 416.742 143.965 418.767 144.623 420.287C144.736 420.546 144.77 420.831 144.738 421.112C144.231 425.517 143.037 434.276 141.933 437.263C140.852 440.186 140.16 438.728 139.91 437.473C139.882 437.334 139.878 437.192 139.889 437.051Z" fill="#ADADAD"/>
<path d="M164.823 437.113L163.367 418.71C163.345 418.434 163.27 418.154 163.082 417.952C162.015 416.804 160.747 418.828 160.089 420.349C159.976 420.608 159.942 420.892 159.974 421.173C160.481 425.578 161.675 434.337 162.779 437.325C163.859 440.248 164.552 438.79 164.802 437.535C164.829 437.396 164.834 437.254 164.823 437.113Z" fill="#ADADAD"/>
<path d="M504.79 137.96L503.061 129.088L502.189 124.088L501.009 116.081C501.003 116.039 501 115.996 501 115.953V102.07L501.555 90.8422L503.051 81.0837C503.057 81.0397 503.061 80.9953 503.061 80.9508V74.8773C503.061 74.3928 503.454 74.0001 503.938 74.0001H524.933C525.417 74.0001 525.81 74.3928 525.81 74.8773V81.0176L526.682 90.8422L527.316 102.07V116.018L526.682 124.088L525.651 129.088L523.749 138.035C521.325 145.39 519.124 148.758 514.606 153.316C514.241 153.684 513.636 153.65 513.313 153.245C509.29 148.188 507.363 144.697 504.832 138.107C504.814 138.06 504.8 138.01 504.79 137.96Z" fill="#7B7B7B"/>
<path d="M509.798 144.526L506.922 137.037C506.151 135.029 505.756 132.897 505.756 130.747V129.175C511.843 131.702 519.759 130.228 522.956 129.175V130.511C522.956 132.814 522.503 135.095 521.621 137.224L518.597 144.526C517.507 147.501 516.579 148.75 514.697 150.181C514.382 150.421 513.943 150.407 513.643 150.15C511.574 148.376 510.781 147.007 509.798 144.526Z" fill="#ADADAD"/>
<path d="M523.828 77.9473H504.488C504.118 83.4444 502.268 94.5262 503.774 96.2806C505.038 97.7526 506.232 98.1227 507.024 98.3859H520.103C520.975 98.5028 523.147 98.1929 524.859 96.0175C526.571 93.842 524.885 83.0643 523.828 77.9473Z" fill="#ADADAD"/>
<path d="M508.213 120.14L505.281 124.789C504.107 126.649 506.06 127.494 507.183 127.684C510.301 127.977 517.392 128.386 520.816 127.684C524.241 126.982 524.093 125.462 523.591 124.789L520.261 119.789L508.213 120.14Z" fill="#ADADAD"/>
<path d="M501.889 103.949L503.345 122.352C503.367 122.628 503.442 122.907 503.63 123.11C504.697 124.258 505.965 122.233 506.623 120.713C506.736 120.454 506.77 120.169 506.738 119.888C506.231 115.483 505.037 106.724 503.933 103.737C502.852 100.814 502.16 102.272 501.91 103.527C501.882 103.666 501.878 103.808 501.889 103.949Z" fill="#ADADAD"/>
<path d="M526.823 103.887L525.367 122.29C525.345 122.566 525.27 122.846 525.082 123.048C524.015 124.196 522.747 122.172 522.089 120.651C521.976 120.392 521.942 120.108 521.974 119.827C522.481 115.422 523.675 106.663 524.779 103.675C525.859 100.752 526.552 102.21 526.802 103.465C526.829 103.604 526.834 103.746 526.823 103.887Z" fill="#ADADAD"/>
</g>
<defs>
<clipPath id="clip0_393_115">
<rect width="679" height="476" fill="white"/>
</clipPath>
</defs>
</svg>
